<svg width="680" height="680" viewBox="0 0 680 680" xmlns="http://www.w3.org/2000/svg">
  <defs>
    <radialGradient id="bgGrad" cx="50%" cy="50%" r="50%">
      <stop offset="0%" stop-color="#fff8f0"/>
      <stop offset="100%" stop-color="#fff3e6"/>
    </radialGradient>
    <filter id="softShadow" x="-20%" y="-20%" width="140%" height="140%">
      <feDropShadow dx="0" dy="4" stdDeviation="8" flood-color="#c2410c" flood-opacity="0.18"/>
    </filter>
    <filter id="chakraShadow" x="-30%" y="-30%" width="160%" height="160%">
      <feDropShadow dx="0" dy="2" stdDeviation="4" flood-color="#1d4ed8" flood-opacity="0.25"/>
    </filter>
  </defs>

  <!-- Background -->
  <circle cx="340" cy="340" r="320" fill="url(#bgGrad)" stroke="#f97316" stroke-width="3"/>
  <circle cx="340" cy="340" r="308" fill="none" stroke="#f97316" stroke-width="1" stroke-dasharray="6,4" opacity="0.4"/>

  <!-- Saffron ribbon -->
  <path d="M 190 210 Q 240 170 340 190 Q 440 210 490 180 Q 470 240 340 220 Q 210 200 190 210 Z" fill="#FF6914" opacity="0.95"/>
  <path d="M 200 200 Q 250 158 340 178 Q 440 198 495 168" fill="none" stroke="#FF6914" stroke-width="5" stroke-linecap="round" opacity="0.7"/>

  <!-- White ribbon -->
  <path d="M 165 270 Q 230 240 340 255 Q 460 270 510 245 Q 500 300 340 285 Q 200 270 165 270 Z" fill="#f5f5f5" stroke="#e0e0e0" stroke-width="1"/>

  <!-- Green ribbon -->
  <path d="M 190 340 Q 250 310 340 325 Q 440 340 490 315 Q 475 375 340 355 Q 210 340 190 340 Z" fill="#138808" opacity="0.95"/>
  <path d="M 200 350 Q 255 318 340 333 Q 442 350 492 323" fill="none" stroke="#138808" stroke-width="5" stroke-linecap="round" opacity="0.7"/>

  <!-- Shield -->
  <path d="M 340 155 L 400 185 L 415 270 Q 415 330 340 370 Q 265 330 265 270 L 280 185 Z"
    fill="white" stroke="#f97316" stroke-width="2.5" filter="url(#softShadow)"/>

  <!-- Ashoka Chakra -->
  <circle cx="340" cy="265" r="58" fill="none" stroke="#1d4ed8" stroke-width="4" filter="url(#chakraShadow)"/>
  <circle cx="340" cy="265" r="46" fill="none" stroke="#1d4ed8" stroke-width="1.5"/>
  <circle cx="340" cy="265" r="10" fill="#1d4ed8"/>

  <!-- 24 spokes -->
  <g stroke="#1d4ed8" stroke-width="2" stroke-linecap="round">
    <line x1="340" y1="219" x2="340" y2="234"/>
    <line x1="351.8" y1="219.8" x2="347.6" y2="234.1"/>
    <line x1="362.8" y1="222.4" x2="354.9" y2="235.0"/>
    <line x1="372.4" y1="227" x2="361.3" y2="237.3"/>
    <line x1="380.0" y1="233.2" x2="366.4" y2="240.8"/>
    <line x1="385.6" y1="240.8" x2="370.0" y2="245.5"/>
    <line x1="388.8" y1="249.4" x2="372.4" y2="251.2"/>
    <line x1="389.8" y1="258.6" x2="373.4" y2="257.4"/>
    <line x1="388.2" y1="267.6" x2="372.2" y2="263.8"/>
    <line x1="384.2" y1="275.8" x2="369.4" y2="269.2"/>
    <line x1="378.2" y1="282.8" x2="365.2" y2="274.0"/>
    <line x1="370.4" y1="288.2" x2="359.8" y2="277.6"/>
    <line x1="361.4" y1="291.6" x2="353.4" y2="279.8"/>
    <line x1="351.8" y1="293.0" x2="347.4" y2="280.6"/>
    <line x1="340" y1="311" x2="340" y2="296"/>
    <line x1="328.2" y1="293.0" x2="332.6" y2="280.6"/>
    <line x1="318.6" y1="291.6" x2="326.6" y2="279.8"/>
    <line x1="309.6" y1="288.2" x2="320.2" y2="277.6"/>
    <line x1="301.8" y1="282.8" x2="314.8" y2="274.0"/>
    <line x1="295.8" y1="275.8" x2="310.6" y2="269.2"/>
    <line x1="291.8" y1="267.6" x2="307.8" y2="263.8"/>
    <line x1="290.2" y1="258.6" x2="306.6" y2="257.4"/>
    <line x1="291.2" y1="249.4" x2="307.6" y2="251.2"/>
    <line x1="294.4" y1="240.8" x2="310.0" y2="245.5"/>
    <line x1="300.0" y1="233.2" x2="313.6" y2="240.8"/>
    <line x1="307.6" y1="227" x2="318.7" y2="237.3"/>
    <line x1="317.2" y1="222.4" x2="325.1" y2="235.0"/>
    <line x1="328.2" y1="219.8" x2="332.4" y2="234.1"/>
  </g>

  <!-- Decorative dots -->
  <circle cx="230" cy="175" r="5" fill="#f97316" opacity="0.7"/>
  <circle cx="450" cy="175" r="5" fill="#f97316" opacity="0.7"/>
  <circle cx="210" cy="390" r="4" fill="#138808" opacity="0.7"/>
  <circle cx="470" cy="390" r="4" fill="#138808" opacity="0.7"/>

  <!-- Divider -->
  <line x1="120" y1="430" x2="260" y2="430" stroke="#f97316" stroke-width="2" stroke-linecap="round"/>
  <line x1="420" y1="430" x2="560" y2="430" stroke="#f97316" stroke-width="2" stroke-linecap="round"/>
  <circle cx="340" cy="430" r="4" fill="#f97316"/>

  <!-- Text -->
  <text x="340" y="488" text-anchor="middle" font-family="Georgia,serif" font-size="52" font-weight="900" letter-spacing="3" fill="#1a4731">RASHTRIYA</text>
  <text x="340" y="545" text-anchor="middle" font-family="Georgia,serif" font-size="48" font-weight="900" letter-spacing="2" fill="#f97316">PRAHARI</text>
  <text x="340" y="600" text-anchor="middle" font-family="Georgia,serif" font-size="38" font-weight="700" letter-spacing="8" fill="#1a4731">BHARAT</text>
  <text x="340" y="635" text-anchor="middle" font-family="Georgia,serif" font-size="15" font-weight="400" letter-spacing="2" fill="#f97316" opacity="0.85">एक राष्ट्र पहली</text>
</svg>
